<svg xmlns="http://www.w3.org/2000/svg" viewBox="0 0.16 49.69 49.71">
  <path d="M 22.09 0.16 C 16.4 0.91 11.46 3.27 7.51 7.14 C 4.1 10.48 1.81 14.51 0.66 19.2 C 0.16 21.22 -0.01 22.77 0 25.04 C 0.01 29.15 0.82 32.54 2.67 36.27 C 4.52 39.98 7.45 43.3 11.02 45.71 C 15.79 48.92 21.85 50.47 27.31 49.87 C 33.58 49.17 38.59 46.81 42.81 42.53 C 48.51 36.75 50.91 29.26 49.69 20.92 C 48.99 16.02 46.18 10.63 42.55 7.14 C 39.1 3.84 34.97 1.61 30.45 0.59 C 27.85 0.02 24.52 -0.16 22.09 0.16 Z M 28.08 3.32 C 34.93 4.32 40.99 8.75 44.12 15.06 C 45.07 16.97 45.76 19.13 46.1 21.26 C 46.34 22.73 46.34 26.68 46.1 28.05 C 45.46 31.67 44.17 34.73 42 37.66 C 41.64 38.16 40.7 39.21 39.92 40 L 38.51 41.41 L 38.56 42.15 L 38.62 42.88 L 38.34 41.83 C 38.02 40.57 37.74 39.87 37.32 39.32 C 37.15 39.09 37 38.85 37 38.78 C 37.01 38.73 37.25 38.5 37.55 38.29 C 38.08 37.9 38.81 37.13 39.21 36.52 C 39.35 36.32 39.55 36.15 39.75 36.1 C 40.23 35.96 40.77 35.4 40.89 34.91 C 41.02 34.44 40.98 34.22 40.65 33.73 L 40.42 33.39 L 40.63 32.44 C 40.83 31.5 40.83 31.48 40.67 30.01 C 40.59 29.2 40.52 28.41 40.52 28.28 C 40.52 27.94 39.79 26.47 39.21 25.66 C 38.24 24.28 37.88 23.95 36.47 23.27 C 34.84 22.45 34.24 22.32 32.59 22.39 C 31.14 22.44 29.93 22.72 28.81 23.26 C 27.69 23.79 26.42 25.06 25.19 26.89 C 24.77 27.5 24.75 27.58 24.75 28.17 C 24.75 28.63 24.65 29.08 24.4 29.86 C 23.99 31.17 24 31.47 24.6 32.5 C 24.84 32.9 25.03 33.28 25.03 33.33 C 25.03 33.39 24.91 33.57 24.75 33.74 C 24.24 34.29 24.25 35.13 24.77 35.69 C 25.07 36.01 25.79 36.31 25.97 36.18 C 26.02 36.15 25.98 35.91 25.88 35.66 C 25.59 34.9 25.67 34.87 26.02 35.61 C 26.71 37.08 27.65 38.03 29.16 38.77 C 30.31 39.33 31.28 39.58 32.68 39.64 C 33.31 39.67 33.74 39.73 33.63 39.77 C 33.06 39.97 30.44 39.6 29.23 39.14 L 28.6 38.9 L 28.44 39.12 C 28.09 39.58 27.4 41.1 27.23 41.78 C 27.13 42.17 27 42.96 26.93 43.54 C 26.74 45.33 26.67 45.49 26.47 44.44 C 26.13 42.7 23.9 34.45 23.62 33.95 C 23.59 33.88 22.99 33.67 22.29 33.5 C 21.6 33.32 20.84 33.11 20.6 33.01 C 20.37 32.93 20.16 32.88 20.13 32.91 C 20.1 32.94 20.26 33.22 20.49 33.52 C 20.72 33.83 21.04 34.3 21.21 34.55 C 21.66 35.27 22.69 37.51 23 38.4 C 23.33 39.35 23.3 39.41 22.3 40.27 C 21.92 40.59 21.61 40.93 21.61 41.01 C 21.61 41.09 22.05 41.57 22.58 42.07 C 23.5 42.94 23.54 42.99 23.46 43.26 L 23.38 43.55 L 23.34 43.25 C 23.32 43.02 23.09 42.76 22.32 42.03 C 21.77 41.52 21.32 41.04 21.32 40.96 C 21.32 40.9 21.67 40.54 22.08 40.18 C 23.12 39.28 23.13 39.22 22.7 38.12 C 21.98 36.28 20.43 33.43 19.86 32.89 C 19.68 32.72 19.61 32.56 19.61 32.3 C 19.61 31.9 19.7 31.81 20.18 31.65 C 20.68 31.48 21.16 31.11 21.5 30.64 C 21.76 30.27 21.88 30.2 22.61 29.97 C 23.05 29.83 23.42 29.68 23.42 29.64 C 23.42 29.59 23.24 29.34 23.04 29.09 C 22.63 28.59 22.55 28.24 22.83 28.15 C 22.91 28.13 23.24 28.08 23.56 28.04 C 23.87 28.01 24.16 27.96 24.19 27.93 C 24.23 27.92 24.14 27.55 23.99 27.13 C 23.82 26.71 23.7 26.31 23.7 26.25 C 23.7 26.18 23.95 26.06 24.25 25.95 C 24.93 25.73 26.08 25.16 26.08 25.05 C 26.08 25 25.72 24.77 25.31 24.54 C 24.48 24.1 23.64 23.43 23.77 23.31 C 23.81 23.27 24.15 23.14 24.51 23.03 C 25.42 22.72 26.39 22.27 27.15 21.78 C 27.5 21.56 27.79 21.36 27.77 21.35 C 27.73 21.32 25.15 20.21 24.91 20.13 C 24.79 20.08 24.77 20.02 24.81 19.94 C 24.85 19.86 25.48 19.25 26.2 18.58 C 26.91 17.9 27.5 17.31 27.5 17.28 C 27.5 17.2 26.91 17.09 25.17 16.85 C 24.55 16.75 24 16.65 23.96 16.62 C 23.91 16.58 24.35 15.74 24.93 14.75 C 25.87 13.13 26.05 12.79 25.95 12.79 C 25.93 12.79 25.15 13.07 24.22 13.41 C 22.86 13.91 22.49 14 22.4 13.91 C 22.19 13.7 21.99 12.12 21.99 10.7 V 9.34 L 21.22 9.75 C 20.32 10.23 19.11 11.18 18.55 11.84 C 18.34 12.1 18.12 12.31 18.08 12.31 C 18.04 12.31 17.68 11.87 17.27 11.33 C 16.56 10.39 15.38 9.06 15.24 9.06 C 15.21 9.06 15.13 9.48 15.07 9.99 C 14.9 11.42 14.4 13.17 14.15 13.17 C 14.08 13.17 13.63 12.98 13.14 12.75 C 12.36 12.39 11.18 12.02 10.74 12.02 C 10.62 12.02 10.68 12.2 10.96 12.76 C 11.38 13.61 11.76 14.94 11.71 15.4 L 11.68 15.71 L 10.82 15.77 C 8.33 15.97 7.17 16.08 7.17 16.13 C 7.17 16.17 7.58 16.62 8.1 17.14 C 9.06 18.12 9.76 19.16 9.71 19.52 C 9.69 19.66 9.21 20.06 8.21 20.76 C 7.4 21.32 6.73 21.83 6.71 21.88 C 6.69 21.93 6.79 21.99 6.95 22.03 C 7.96 22.25 8.4 22.39 8.76 22.61 C 9.26 22.9 9.77 23.34 10.03 23.71 L 10.22 23.97 L 9.15 25.04 C 8.26 25.93 8.11 26.12 8.22 26.22 C 8.3 26.29 8.87 26.51 9.49 26.7 C 10.12 26.89 10.67 27.09 10.72 27.14 C 10.77 27.19 10.69 27.68 10.51 28.35 C 10.35 28.97 10.24 29.51 10.27 29.56 C 10.32 29.65 11.89 29.57 12.15 29.47 C 12.38 29.39 12.48 29.62 12.54 30.37 C 12.58 30.81 12.64 31.19 12.68 31.21 C 12.75 31.25 13.82 30.79 13.82 30.72 C 13.82 30.69 13.69 30.49 13.54 30.27 C 12.91 29.33 12.47 28.15 12.13 26.42 C 11.9 25.32 11.79 24.27 11.91 24.27 C 11.95 24.27 12.01 24.58 12.05 24.95 C 12.24 27.08 13.22 29.79 14.11 30.69 C 14.34 30.92 14.83 31.24 15.31 31.46 L 16.11 31.84 L 16.08 32.19 L 16.05 32.55 L 13.94 33.25 L 11.83 33.96 L 11.64 34.55 C 11.54 34.87 11.1 36.35 10.68 37.86 C 9.9 40.58 9.66 41.27 9.78 40.46 C 9.83 40.06 9.81 40.02 9.32 39.48 C 6.29 36.19 4.42 32.34 3.69 27.86 C 3.41 26.22 3.44 22.72 3.74 21.11 C 4.56 16.6 6.39 12.91 9.37 9.77 C 14.24 4.65 21.05 2.29 28.08 3.32 Z M 15.22 34.24 C 14.54 35.66 13.32 39.08 13.43 39.26 C 13.48 39.35 13.88 39.74 14.34 40.14 C 14.81 40.54 15.2 40.92 15.21 40.98 C 15.24 41.05 15.1 41.26 14.9 41.46 C 14.69 41.68 14.62 41.73 14.71 41.59 C 15.08 41 15.11 41.08 14.15 40.19 C 13.5 39.59 13.25 39.29 13.25 39.13 C 13.25 38.63 15.13 33.84 15.33 33.84 C 15.38 33.84 15.33 34.02 15.22 34.24 Z" fill="#000000"/>
</svg>